# xmcd
#
# Track frame offsets:
# 150
# 16636
# 54504
# 117694
# 132918
# 161014
# 182951
# 208234
# 235723
# 253135
# 264080
# 288249
# 294641
# 315021
#
# Disc length: 4266 seconds
#
#
# Revision: 4
# Processed by: cddbd v1.5.2PL0 Copyright (c) Steve Scherf et al.
# Submitted via: FreeRIP 2.942 
#
DISCID=c610a80e
DTITLE=Lords Of Chaos - Lords Of Chaos - Die Geschichte Der Okkulten Musik CD 2
DYEAR=2002
DGENRE=Black Metal
TTITLE0=Anton Szandor LaVey - Black Mass Opening Hymn
TTITLE1=Death SS - Black Mass
TTITLE2=Bathory - Twilight Of The Gods
TTITLE3=Unleashed - Into Glory Ride
TTITLE4=Mayhem - Freezing Moon (feat. Dead)
TTITLE5=Darkthrone - A Blaze In The Northern Sky
TTITLE6=Emperor - The Burning Shadows Of Silence
TTITLE7=Ulver - (exclusive and unreleased track)
TTITLE8=Thorns - Stellar Master Elite
TTITLE9=Abruptum - Massdöd
TTITLE10=The Electric Hellfire Club - Age Of Fire (exclusive remix)
TTITLE11=Peter H. Gilmore - What Is Good? (Lex Talionis)
TTITLE12=White Stains - Take It From Me
TTITLE13=Anton Szandor LaVey - Black Mass (Closing Hymn)
EXTD=YEAR: 2002
EXTT0=
EXTT1=
EXTT2=
EXTT3=
EXTT4=
EXTT5=
EXTT6=
EXTT7=
EXTT8=
EXTT9=
EXTT10=
EXTT11=
EXTT12=
EXTT13=
PLAYORDER=
